<svg id="visual" viewBox="0 0 960 300" width="960" height="300" xmlns="http://www.w3.org/2000/svg" xmlns:xlink="http://www.w3.org/1999/xlink" version="1.1"><path d="M0 168L26.7 162.7C53.3 157.3 106.7 146.7 160 150.8C213.3 155 266.7 174 320 178C373.3 182 426.7 171 480 162.3C533.3 153.7 586.7 147.3 640 146.3C693.3 145.3 746.7 149.7 800 154.3C853.3 159 906.7 164 933.3 166.5L960 169L960 301L933.3 301C906.7 301 853.3 301 800 301C746.7 301 693.3 301 640 301C586.7 301 533.3 301 480 301C426.7 301 373.3 301 320 301C266.7 301 213.3 301 160 301C106.7 301 53.3 301 26.7 301L0 301Z" fill="#474747"></path><path d="M0 232L26.7 223.5C53.3 215 106.7 198 160 199.8C213.3 201.7 266.7 222.3 320 223C373.3 223.7 426.7 204.3 480 199C533.3 193.7 586.7 202.3 640 208C693.3 213.7 746.7 216.3 800 215.2C853.3 214 906.7 209 933.3 206.5L960 204L960 301L933.3 301C906.7 301 853.3 301 800 301C746.7 301 693.3 301 640 301C586.7 301 533.3 301 480 301C426.7 301 373.3 301 320 301C266.7 301 213.3 301 160 301C106.7 301 53.3 301 26.7 301L0 301Z" fill="#262626"></path><path d="M0 254L26.7 250.3C53.3 246.7 106.7 239.3 160 242.2C213.3 245 266.7 258 320 262.7C373.3 267.3 426.7 263.7 480 256.3C533.3 249 586.7 238 640 235C693.3 232 746.7 237 800 241.3C853.3 245.7 906.7 249.3 933.3 251.2L960 253L960 301L933.3 301C906.7 301 853.3 301 800 301C746.7 301 693.3 301 640 301C586.7 301 533.3 301 480 301C426.7 301 373.3 301 320 301C266.7 301 213.3 301 160 301C106.7 301 53.3 301 26.7 301L0 301Z" fill="#000000"></path></svg>